<?xml version="1.0" standalone="no"?>
<!DOCTYPE svg PUBLIC "-//W3C//DTD SVG 20010904//EN"
 "http://www.w3.org/TR/2001/REC-SVG-20010904/DTD/svg10.dtd">
<svg version="1.0" xmlns="http://www.w3.org/2000/svg"
 width="371.000000pt" height="267.000000pt" viewBox="0 0 371.000000 267.000000"
 preserveAspectRatio="xMidYMid meet">
<metadata>
Created by potrace 1.16, written by Peter Selinger 2001-2019
</metadata>
<g transform="translate(0.000000,267.000000) scale(0.100000,-0.100000)"
fill="#000000" stroke="none">
<path d="M960 2410 c0 -5 4 -10 9 -10 13 0 71 -50 71 -61 0 -5 -9 -9 -20 -9
-11 0 -20 -4 -20 -10 0 -5 5 -10 12 -10 7 0 -2 -15 -19 -32 -17 -18 -36 -44
-43 -58 -12 -23 -10 -22 24 8 20 17 42 32 49 32 6 0 -5 -14 -26 -31 -20 -17
-37 -38 -37 -46 0 -9 -7 -25 -17 -35 -10 -11 -12 -18 -4 -18 6 0 19 16 28 35
20 42 33 36 32 -13 l-1 -37 -8 30 c-4 17 -8 22 -9 13 0 -9 -9 -23 -18 -30 -26
-19 -26 -33 -2 -106 17 -51 19 -69 10 -84 -14 -22 -3 -23 26 -3 20 14 24 12
63 -33 40 -45 74 -71 95 -72 5 0 4 5 -3 12 -24 24 -11 27 23 7 75 -44 98 -118
54 -173 -22 -28 -19 -32 14 -15 17 8 16 5 -6 -15 -15 -14 -35 -26 -43 -26 -8
0 -14 -4 -14 -10 0 -18 -47 -22 -78 -6 -44 23 -53 59 -28 109 18 32 14 33 -30
7 -28 -18 -36 -19 -53 -8 -26 16 -27 25 -3 31 9 3 -4 5 -30 6 -54 1 -61 13
-20 35 24 13 25 15 9 21 -23 9 -94 -18 -146 -56 -80 -58 -147 -191 -156 -312
-4 -51 -3 -56 5 -27 5 19 16 51 24 70 l15 35 1 -53 c0 -30 7 -69 16 -88 23
-47 28 -37 7 14 -13 33 -14 52 -6 94 l9 53 12 -42 c7 -22 21 -52 32 -65 20
-23 20 -23 1 17 -26 57 -33 108 -20 141 l12 29 8 -49 c4 -27 13 -54 19 -60 8
-8 9 -4 1 17 -20 52 -14 96 18 127 33 33 77 48 100 33 23 -14 43 -82 36 -121
-6 -30 -9 -33 -31 -28 -30 8 -31 -8 -2 -28 l21 -15 -27 -11 c-15 -5 -39 -8
-54 -5 -26 5 -26 5 3 -9 35 -18 108 -20 136 -6 25 14 24 9 -6 -50 -34 -66 -32
-71 13 -28 44 44 78 58 135 58 40 -1 41 -1 22 -16 -19 -16 -19 -16 5 -9 14 4
40 16 58 26 39 23 52 24 52 5 0 -8 8 -24 18 -37 l19 -22 7 29 c10 40 57 144
66 144 3 0 5 -15 3 -32 l-4 -33 20 25 c38 46 53 93 59 176 8 127 -19 179 -132
257 -32 22 -33 32 -3 42 17 6 11 9 -31 15 -60 9 -87 29 -108 79 -17 42 -18 39
9 39 12 1 36 4 53 7 28 6 35 2 75 -44 24 -28 50 -51 57 -51 6 0 12 -6 12 -12
0 -9 2 -10 8 -2 4 7 16 14 27 17 18 4 18 5 -2 6 -13 0 -23 5 -23 9 0 17 13 20
37 9 22 -10 27 -8 43 12 13 18 19 21 23 10 4 -11 6 -11 6 1 1 21 -28 62 -39
55 -5 -3 -27 6 -50 20 -40 25 -51 49 -27 58 16 5 -9 37 -29 37 -8 0 -14 7 -14
15 0 8 -16 19 -40 25 -44 12 -59 28 -39 42 10 7 7 7 -8 3 -17 -5 -22 -3 -17 8
3 8 -8 25 -26 41 -37 30 -61 35 -35 6 16 -17 16 -21 2 -35 -22 -21 -40 -19
-67 10 -34 36 -150 63 -150 35z"/>
<path d="M2410 2394 c-18 -16 -29 -33 -26 -41 5 -11 0 -13 -17 -8 -15 4 -18 4
-8 -3 20 -14 5 -30 -39 -42 -24 -6 -40 -17 -40 -25 0 -8 -6 -15 -14 -15 -20 0
-45 -32 -28 -37 23 -9 12 -33 -28 -58 -23 -14 -45 -23 -50 -20 -11 7 -40 -34
-39 -55 0 -12 2 -12 6 -1 4 11 10 8 23 -10 16 -20 21 -22 43 -12 24 11 37 8
37 -9 0 -4 -10 -9 -22 -9 -21 -1 -21 -2 -3 -6 11 -3 23 -10 27 -17 6 -8 8 -7
8 2 0 6 6 12 13 12 6 0 32 23 56 51 40 46 47 50 75 44 17 -3 41 -6 54 -7 26 0
25 3 8 -39 -21 -50 -48 -70 -108 -79 -42 -6 -48 -9 -30 -15 29 -10 28 -20 -4
-42 -113 -78 -140 -130 -132 -257 6 -83 21 -130 59 -176 l20 -25 -4 33 c-2 17
0 32 3 32 9 0 56 -104 66 -144 l7 -29 19 22 c10 13 18 29 18 37 0 19 13 18 52
-5 18 -10 44 -22 58 -26 24 -7 24 -7 5 9 -19 15 -18 15 22 16 57 0 91 -14 136
-58 44 -43 46 -38 12 28 -30 59 -31 64 -6 50 28 -14 101 -12 136 6 29 14 29
14 3 9 -15 -3 -39 0 -55 6 -25 9 -26 12 -11 20 10 5 23 19 29 30 9 19 9 19
-10 10 -31 -17 -40 -13 -46 22 -7 38 13 106 36 120 23 15 67 0 100 -33 32 -31
38 -75 18 -127 -8 -21 -7 -25 1 -17 6 6 15 33 19 60 l8 49 12 -29 c13 -33 6
-84 -20 -141 -19 -40 -19 -40 1 -17 11 13 25 43 32 65 l12 42 9 -53 c8 -42 7
-61 -6 -94 -21 -51 -16 -61 7 -14 9 19 16 58 16 88 l1 53 15 -35 c8 -19 19
-51 24 -70 8 -29 9 -24 5 27 -9 121 -76 254 -156 312 -52 38 -123 65 -146 56
-16 -6 -15 -8 10 -21 40 -22 33 -34 -20 -35 -27 -1 -40 -3 -30 -6 23 -6 22
-15 -4 -31 -17 -11 -25 -10 -53 8 -44 26 -48 25 -30 -7 25 -50 16 -86 -28
-109 -31 -16 -78 -12 -78 6 0 6 -6 10 -14 10 -8 0 -28 12 -43 26 -22 20 -23
23 -6 15 33 -17 36 -13 14 15 -44 55 -21 129 54 173 34 20 47 17 23 -7 -7 -7
-8 -12 -3 -12 21 1 55 27 95 72 39 45 43 47 63 33 29 -20 40 -19 26 3 -9 15
-7 33 10 84 24 73 24 87 -1 106 -10 7 -19 21 -19 30 -1 9 -5 4 -9 -13 l-8 -30
-1 37 c-1 49 12 55 32 13 9 -19 22 -35 28 -35 8 0 6 7 -4 18 -10 10 -17 26
-17 35 0 8 -17 29 -37 46 -21 17 -32 31 -26 31 7 0 29 -15 49 -32 34 -30 36
-31 24 -8 -7 14 -26 40 -43 58 -17 17 -26 32 -19 32 7 0 12 5 12 10 0 6 -9 10
-20 10 -11 0 -20 4 -20 9 0 11 58 61 71 61 5 0 9 5 9 10 0 28 -116 1 -150 -35
-27 -29 -45 -31 -67 -10 -14 14 -14 18 2 35 26 29 2 24 -35 -6z"/>
<path d="M1773 2297 c-13 -13 -23 -30 -23 -39 0 -9 -17 -22 -40 -32 -23 -9
-44 -24 -47 -33 -6 -15 -7 -14 -14 3 -5 14 -7 10 -6 -13 1 -18 7 -35 13 -37 7
-3 10 3 7 12 -6 24 17 50 52 58 l29 7 -18 -27 c-9 -15 -16 -30 -13 -32 2 -2
10 7 17 21 12 23 50 36 50 17 0 -4 27 -6 59 -5 58 2 60 1 71 -30 6 -18 16 -43
22 -57 14 -32 54 -64 63 -50 3 5 -1 10 -10 10 -13 0 -14 2 -3 14 7 8 15 13 18
11 3 -2 6 17 8 41 2 36 -3 48 -28 74 -36 37 -83 49 -108 28 -30 -26 -42 -30
-42 -14 0 9 5 15 11 14 7 -2 16 11 20 27 7 23 5 33 -8 43 -25 18 -55 14 -80
-11z"/>
<path d="M1826 2056 c6 -27 4 -29 -49 -41 -20 -4 -27 -2 -22 5 5 8 -13 9 -65
4 -59 -5 -71 -4 -65 6 5 9 4 11 -4 6 -6 -4 -9 -11 -7 -15 3 -4 6 -55 7 -112
l1 -104 93 3 94 3 4 -33 4 -33 1 33 2 32 89 0 90 0 -6 73 c-3 39 -10 74 -15
76 -5 1 -1 9 8 16 29 21 10 42 -43 49 -70 8 -73 9 -68 16 2 3 -10 14 -26 24
l-30 18 7 -26z"/>
<path d="M1716 1364 c-4 -14 -40 -61 -81 -104 -73 -77 -97 -125 -81 -165 3 -8
1 -15 -4 -15 -6 0 -10 5 -10 10 0 6 -7 10 -15 10 -8 0 -15 2 -15 5 0 14 32 65
69 110 23 27 41 53 41 57 0 11 -69 -19 -95 -40 -12 -9 -6 -2 12 16 35 34 26
41 -21 17 -36 -19 -37 -19 -30 3 5 14 4 14 -4 2 -6 -8 -9 -18 -6 -22 3 -4 0
-17 -6 -28 -15 -29 -2 -87 26 -115 13 -13 24 -33 24 -44 0 -11 9 -25 20 -31
21 -11 27 -45 10 -53 -6 -3 -5 -4 2 -3 17 3 23 53 9 70 -6 7 -8 16 -5 19 4 3
14 -3 24 -15 13 -16 19 -18 25 -8 5 8 4 11 -3 6 -16 -10 -32 26 -32 71 0 45
13 67 91 149 52 55 80 106 66 120 -2 3 -8 -7 -11 -22z"/>
<path d="M1891 1383 c-2 -29 25 -73 84 -133 67 -70 93 -126 74 -161 -12 -24 2
-112 19 -115 7 -1 8 0 2 3 -13 6 -13 40 0 48 20 12 32 -7 13 -22 -17 -13 -16
-13 4 -4 16 8 20 18 17 36 -3 17 2 27 17 35 12 7 18 17 15 26 -3 9 1 29 10 46
15 28 15 47 1 103 -3 11 -6 25 -6 30 -1 6 -5 4 -10 -4 -6 -10 -13 -11 -29 -2
-11 6 -29 11 -39 11 -13 0 -9 -6 15 -21 40 -26 42 -35 2 -14 -89 46 -92 43
-29 -41 22 -28 39 -55 39 -61 0 -5 9 -19 20 -30 16 -18 17 -23 5 -33 -12 -10
-17 -8 -24 11 l-10 24 0 -26 c-1 -15 -9 -33 -18 -40 -15 -12 -16 -12 -9 6 30
80 20 113 -64 199 -37 39 -75 87 -83 106 -9 19 -16 30 -16 23z"/>
<path d="M1753 1195 c5 -33 4 -35 -19 -29 -56 14 -67 -23 -15 -51 16 -9 20
-14 10 -15 -15 0 -49 -30 -49 -42 0 -13 32 -17 56 -8 28 11 27 13 7 -37 -3 -9
5 -13 26 -13 23 0 31 5 31 18 1 16 1 16 14 0 7 -10 23 -18 36 -18 18 0 22 4
18 25 -5 22 -2 24 18 19 56 -14 67 23 15 51 -16 9 -20 14 -10 15 9 0 24 9 34
20 27 30 6 49 -36 33 -27 -11 -30 -10 -24 5 24 54 -12 86 -38 35 l-15 -28 -13
28 c-7 16 -20 27 -32 27 -17 0 -19 -5 -14 -35z"/>
<path d="M1203 678 l27 -10 0 -107 c0 -60 5 -122 11 -138 16 -47 62 -66 142
-61 57 3 72 8 95 31 26 26 27 32 31 148 3 116 4 121 27 129 37 15 29 20 -31
20 -30 0 -55 -4 -55 -10 0 -5 7 -10 15 -10 28 0 37 -40 33 -142 -3 -90 -6
-100 -30 -125 -19 -19 -40 -27 -77 -31 -46 -4 -53 -2 -81 26 l-31 31 3 118 c3
114 4 118 28 130 22 11 16 13 -55 12 -66 0 -75 -2 -52 -11z"/>
<path d="M1643 678 c-27 -13 -45 -61 -34 -91 12 -31 39 -53 96 -78 66 -28 85
-46 85 -79 0 -29 -23 -55 -55 -63 -15 -3 -13 -5 8 -6 35 -1 87 47 87 81 0 47
-24 72 -105 113 -69 34 -80 44 -83 68 -5 38 14 57 55 57 34 0 63 -21 90 -66
10 -16 12 -12 12 31 0 39 -2 46 -10 33 -9 -16 -13 -17 -39 -3 -33 17 -75 18
-107 3z"/>
<path d="M1893 678 l28 -10 -3 -146 -3 -146 -25 -7 c-14 -4 11 -7 60 -7 47 0
76 3 65 5 -38 10 -45 24 -45 90 0 47 4 65 15 69 28 11 63 -5 73 -33 9 -24 10
-18 10 37 0 55 -1 61 -10 38 -8 -24 -15 -28 -49 -28 l-40 0 3 68 c3 66 4 67
32 70 56 7 96 -7 117 -41 l20 -32 -3 40 -3 40 -135 2 c-102 1 -128 -1 -107 -9z"/>
<path d="M2264 671 c-62 -28 -89 -73 -89 -148 0 -47 5 -68 21 -89 34 -46 70
-67 123 -72 28 -2 51 -8 51 -12 0 -3 -22 -17 -50 -30 -27 -13 -47 -27 -44 -32
3 -4 15 -1 27 7 34 24 83 18 154 -20 92 -49 152 -44 183 15 10 19 9 19 -19 2
-29 -16 -34 -16 -118 5 -48 13 -101 24 -118 26 -28 2 -24 5 42 40 100 51 131
107 111 200 -22 105 -161 159 -274 108z m187 -28 c54 -61 51 -183 -6 -240 -29
-29 -39 -33 -87 -33 -90 0 -128 46 -128 156 0 108 46 157 139 151 45 -3 59 -9
82 -34z"/>
</g>
</svg>
